<svg xmlns="http://www.w3.org/2000/svg" version="1.1" xmlns:xlink="http://www.w3.org/1999/xlink" xmlns:svgjs="http://svgjs.com/svgjs" width="512" height="512" x="0" y="0" viewBox="0 0 512 512" style="enable-background:new 0 0 512 512" xml:space="preserve" class=""><g><g><g><path d="m403.1 381.6 5.1-54.7c6.3-2.7 11.3-8.1 13-15.3 10.5-43.3-28.7-51.9-28.7-51.9s10.6 12.3-1.2 25.4l-2.3-5c-13.6-11.2-17.9-26.2-15.2-43.9-.1-.9-.2-1.7-.3-2.5 10.9-4.7 18.5-15.6 18.5-28.4 0-16.8-13.2-30.4-29.7-30.8l-.8-3.7v-9.2c.9.2 1.3.4 1.3.4v-29.4s-.1 0-.2 0v-.4l.2.5c7.3-25.1 18-80.5-39.8-98.4-1-.4-2-.7-3-.9-.4-.1-.8-.1-1.2-.2.8-1.5 1.2-3 1.2-4.7 0-8.4-11.3-15.1-25.3-15.1s-25.3 6.8-25.3 15.1v.6c-1.8 0-2.9 0-2.9 0-103.6 8.1-178.2 122.8-131.3 139.5 5.8 2.1 11.9 2.8 18.1 2.4l-.1 4.6c-12.9 3.6-22.4 15.5-22.4 29.7 0 13.7 8.8 25.2 20.9 29.3v1.6l.1 3.1c.2 12.3-1.2 56.5-30.8 35.3 0 0-7.7 34.6 32.6 40.5v5.4c-.6.6-1.2 1.1-1.8 1.7l1.8-1.3v1.9c-16.9-5.4-34.1-4.5-48.5 3.8-33.1 19.1-39.3 70.3-13.8 114.3 25.4 44 72.9 64.3 105.9 45.2 3.2-1.9 4.7-4.8 5.1-8.3.9.6 1.7 1 2.6 1.2 2.4.6 5.8 1.1 10 1.5 51.3 6.8 108.6 2.9 149.4-11.6 3.4-1 6.2-2 8.1-3.1 1.7-.9 3.1-1.8 4.5-2.7l-.6 14 14.2 1.2 3.5-31.7-1.3-.1c15.5 1.3 29.4-12.4 30.9-30.7 1-16-7.7-30.2-20.5-34.2zm-11.8 64.8-.1-.1c.4.1.8.2 1.2.2z" fill="#ffcaa6" data-original="#ffcaa6" class=""></path></g><g><path d="m204.7 430.9s40.1-47.7-15.5-86.6-104-24.9-112.6 26.2 48.8 128.9 84.6 122.2c35.8-6.6 40.9-6.3 39.8-28.9-1-22.6-4.5-19.5 3.7-32.9z" fill="#ffffff" data-original="#ffffff"></path></g><g><circle cx="175.3" cy="392.6" fill="#ff1733" r="20.3" data-original="#ff1733" class=""></circle></g><g><circle cx="123.3" cy="360.7" fill="#25ef37" r="20.3" data-original="#25ef37"></circle></g><g><circle cx="158.4" cy="452.2" fill="#2291ff" r="20.3" data-original="#2291ff"></circle></g><g><g><path d="m403.1 381.6 5.1-54.7c6.3-2.7 11.3-8.1 13-15.3 10.5-43.3-28.7-51.9-28.7-51.9s10.6 12.3-1.2 25.4l-2.3-5c-13.6-11.2-17.9-26.2-15.2-43.9-.1-.9-.2-1.7-.3-2.5 10.9-4.7 18.5-15.6 18.5-28.4 0-16.8-13.2-30.4-29.7-30.8l-.8-3.7v-9.2c.9.2 1.3.4 1.3.4v-29.4s-.1 0-.2 0v-.4l.2.5c7.3-25.1 18-80.5-39.8-98.4-1-.4-2-.7-3-.9-.4-.1-.8-.1-1.2-.2.8-1.5 1.2-3 1.2-4.7 0-8.4-11.3-15.1-25.3-15.1s-25.3 6.8-25.3 15.1v.6c-1.8 0-2.9 0-2.9 0-1.3.1-2.6.3-4 .4v454.3c36.7.2 73-4.8 101.3-14.8 3.4-1 6.2-2 8.1-3.1 1.7-.9 3.1-1.8 4.5-2.7l-.6 14 14.2 1.2 3.5-31.7-1.3-.1c15.5 1.3 29.4-12.4 30.9-30.7 1.5-16.1-7.2-30.3-20-34.3zm-11.8 64.8-.1-.1c.4.1.8.2 1.2.2z" fill="#ea9a81" data-original="#ea9a81"></path></g></g><g><path d="m422.6 291.7c-2.9-21.4-25.5-30.5-25.5-30.5v17.4s-2.8 4.7-17 15.2c-9.9 7.3-3.7 18.3 1 24.3l-2.6 64.9 20.8-2.5 17.8-59.3c5.3-5.8 7.4-15.9 5.5-29.5z" fill="#ffcaa6" data-original="#ffcaa6" class=""></path></g><g><path d="m399.1 264.3s-1 19.4-7.8 20.8-29.2 24.5-6.4 36.9c22.7 12.4 27.2 8.1 34.1-9s-8.2-47.5-19.9-48.7z" fill="#ffffff" data-original="#ffffff"></path></g><g><path d="m392.4 287.4s-6.6 8.5 7 9.3 22.7 12.1 22.7 12.1-4.1-37-20.6-45.6z" fill="#ff1733" data-original="#ff1733" class=""></path></g><g><path d="m376.7 445.3c4.1-.5 17.1 1.3 17.1 1.3l-3.5 31.7-14.2-1.2z" fill="#ffcaa6" data-original="#ffcaa6" class=""></path></g><g><path d="m190.6 293.7s-30.9 17.7-39 28.5c0 0 59.7 32.8 62.8 57s-19.2 54.9-17.9 67 8.1 32.7 8.1 32.7 149.2 6.9 172-15.9v-17.9l-7.8-11.6s-15.1 3-23.1-14.4-8.8-31.3 8.7-38.8 23.5 12.1 23.5 12.1l3.4-57.3-45.1-41.5-28.3 5s2 39-32.3 39.5-51.9-13.8-54.7-44c.1.2-16.6-18.6-30.3-.4z" fill="#3daaaf" data-original="#3daaaf"></path></g><g><path d="m308 298.8s2 39-32.3 39.5c-4.7.1-9-.2-13-.6v142.3c44.6-.4 100.7-3.6 114-16.9v-17.9l-7.8-11.6s-15.1 3-23.1-14.4-8.8-31.3 8.7-38.8c17.4-7.5 23.5 12.1 23.5 12.1l3.4-57.3-45.1-41.5z" fill="#277087" data-original="#277087" class=""></path></g><g><path d="m217 289.6s-2.9 39.8 37.5 48.7c0 0 18.2-17.8 36.9-11.5 0 0 20.6-22.5 16.5-37.2l17.5-4 10.8 13.5s7.8 27.4-4.1 33l21.5 32.6s-23.2 19.4-41.8 0c0 0 3.8 56.9-36.2 58.1 0 0 5.2-14.7-3.6-22.9s3.6-31.7 3.6-31.7-25.9 9.2-54.9-9.5c-29.1-18.7-27-67.5-27-67.5z" fill="#ff1733" data-original="#ff1733" class=""></path></g><g><path d="m336.3 299.1-10.8-13.5-17.5 4c4.1 14.7-16.5 37.2-16.5 37.2-11-3.7-21.7.9-28.8 5.3v38.3c8-.4 13-2.2 13-2.2s-12.4 23.5-3.6 31.7 3.6 22.9 3.6 22.9c40-1.2 36.2-58.1 36.2-58.1 18.6 19.4 41.8 0 41.8 0l-21.5-32.6c11.9-5.6 4.1-33 4.1-33z" fill="#af0931" data-original="#af0931" class=""></path></g><g fill="#3c4875"><path d="m362.9 66.3c-13.5-25.4-44-33.2-44-33.2s1.2-21.7-18.5-19.4-30.6 9.7-30.9 14.8c0 0-70 7.9-121.7 59.1s-25.1 85.3 5.4 83.5c30.4-1.8 41.4-16.7 63.5-18.6 21.7-1.8 107-7.1 144.2 8.8l1.7-28.6c.1-.1 13.9-41 .3-66.4z" fill="#3c4875" data-original="#3c4875" class=""></path><path d="m361 161.5 1.9.6c-.6-.3-1.3-.6-1.9-.9z" fill="#3c4875" data-original="#3c4875" class=""></path></g><g><path d="m228.3 132.1s50-42.9 54.1-65.9-1.1-25-1.1-25 15.3 7.9 27.1 0 14.8-7 14.8-7 45.9 18.5 44.6 52.4-3.5 41.1-3.5 41.1l-9.8 32.1c-48.4-9.8-98.2-11.2-149.7-2.8z" fill="#303760" data-original="#303760"></path></g><g><path d="m268.9 303.8s-35.9-.3-47.9-9.4c0 0-4.9 35.5 33.5 44 0 0 13.4-15.9 27.9-13.5 14.4 2.4 14.4 2.4 14.4 2.4s11.5-26.7 11.2-28.4-39.1 4.9-39.1 4.9z" fill="#ea9a81" data-original="#ea9a81"></path></g><g><ellipse cx="200.2" cy="214" fill="#ed2f5d" rx="16.5" ry="8.4" data-original="#ed2f5d" class=""></ellipse></g><g><ellipse cx="324.5" cy="214" fill="#ed2f5d" rx="16.5" ry="8.4" data-original="#ed2f5d" class=""></ellipse></g><g><path d="m262.7 196.8-8.2 17.7h8.2 8.2z" fill="#ed2f5d" data-original="#ed2f5d" class=""></path></g><g><path d="m281.7 227.6c7.3 0 11.9 7.7 8.5 14.2-5.1 10-15.5 16.8-27.5 16.8s-22.4-6.8-27.5-16.8c-3.3-6.5 1.3-14.2 8.5-14.2z" fill="#aa093f" data-original="#aa093f"></path></g><g><path d="m262.5 244.6c-9.8 0-17.7 3.1-17.7 7 0 .5.2 1 .5 1.5 4.9 3.4 10.9 5.4 17.4 5.4h1c5.7-.2 11-1.9 15.6-4.7.6-.7 1-1.4 1-2.2-.1-3.9-8.1-7-17.8-7z" fill="#ed265a" data-original="#ed265a"></path></g><g><path d="m275.7 227.6h-26.3c2 5.4 7.1 9.3 13.2 9.3 6 0 11.2-3.9 13.1-9.3z" fill="#ffffff" data-original="#ffffff"></path></g><g><path d="m151.6 236.2s.4 42.8-15.5 43.9c-15.9 1.2-15.3-5.6-15.3-5.6s2.4 29.9 21 35.9 23-.4 23-.4 23.8-27 39.8-24.4l-41.9-49.4z" fill="#e07e2d" data-original="#e07e2d"></path></g><g><path d="m357.8 236.2-37.6 48.8s22 12.5 34.3 22c12.2 9.5 24.7 25.2 24.7 25.2s-10.2-29.8 1-38.4 11.2-8.6 11.2-8.6-18.2-24.5-18-33.6.4-15.3.4-15.3h-16z" fill="#e07e2d" data-original="#e07e2d"></path></g><g><path d="m238.9 150.6s20 31.1 40.1 33c0 0-6.4-28.3-3.2-33.6z" fill="#ecb447" data-original="#ecb447"></path></g><g><g><path d="m260.3 343.9c-.1 0-.2 0-.3 0-27.5-1.3-48.3-22.7-48.3-49.6 0-3.1 2.5-5.6 5.6-5.6s5.6 2.5 5.6 5.6c0 20.9 16.2 37.4 37.6 38.4 3.1.1 5.5 2.8 5.3 5.9 0 3-2.5 5.3-5.5 5.3z" fill="#3f0f33" data-original="#3f0f33" class=""></path></g><g><path d="m292.7 333.1c-1.6 0-3.2-.7-4.3-2-2-2.4-1.7-5.9.6-7.9 8.6-7.3 13.3-17.6 13.3-29 0-3.1 2.5-5.6 5.6-5.6s5.6 2.5 5.6 5.6c0 14.5-6.3 28.2-17.3 37.5-.9 1-2.2 1.4-3.5 1.4z" fill="#3f0f33" data-original="#3f0f33" class=""></path></g><g><path d="m163.1 241.8c-.3 0-.5 0-.8 0h-1.1c-19.9 0-36.1-16.3-36.1-36.4s16.2-36.4 36.1-36.4c3.1 0 5.6 2.5 5.6 5.6s-2.5 5.6-5.6 5.6c-13.7 0-24.9 11.3-24.9 25.2s11.2 25.2 24.9 25.2h1.4c.6 0 .6 0 1.3-.1 3-.6 6 1.5 6.5 4.5.6 3-1.4 6-4.5 6.5-1.3.3-2 .3-2.8.3z" fill="#3f0f33" data-original="#3f0f33" class=""></path></g><g><path d="m359.7 241.8c-.8 0-1.6-.1-2.9-.3-3-.6-5.1-3.5-4.5-6.5s3.5-5.1 6.5-4.5c.7.1.7.1 1.3.1h1.4c13.7 0 24.9-11.3 24.9-25.2s-11.2-25.2-24.9-25.2c-3.1 0-5.6-2.5-5.6-5.6s2.5-5.6 5.6-5.6c19.9 0 36.1 16.3 36.1 36.4s-16.2 36.4-36.1 36.4h-1.1c-.2 0-.4 0-.7 0z" fill="#3f0f33" data-original="#3f0f33" class=""></path></g><g><path d="m261.4 309.6c-58.3 0-105.8-47.4-105.8-105.7v-29.4c0-3.1 2.5-5.6 5.6-5.6s5.6 2.5 5.6 5.6v29.4c0 52.1 42.4 94.5 94.6 94.5 52.1 0 94.6-42.4 94.6-94.5v-42.4c0-3.1 2.5-5.6 5.6-5.6s5.6 2.5 5.6 5.6v42.4c0 58.3-47.5 105.7-105.8 105.7z" fill="#3f0f33" data-original="#3f0f33" class=""></path></g><g><ellipse cx="203.4" cy="187.2" fill="#3f0f33" rx="12.8" ry="12.9" data-original="#3f0f33" class=""></ellipse></g><g><ellipse cx="319.4" cy="187.2" fill="#3f0f33" rx="12.8" ry="12.9" data-original="#3f0f33" class=""></ellipse></g><g><path d="m381.6 340.9c-1.7 0-3.4-.8-4.5-2.2-16.1-21.6-36.9-38.1-60-47.8-2.9-1.2-4.2-4.5-3-7.3s4.5-4.2 7.3-3c25 10.5 47.3 28.3 64.7 51.4 1.9 2.5 1.3 6-1.1 7.8-1.1.7-2.3 1.1-3.4 1.1z" fill="#3f0f33" data-original="#3f0f33" class=""></path></g><g><path d="m264.8 489.4c-20.3 0-41-1.6-61-4.8-3.1-.5-5.1-3.4-4.6-6.4.5-3.1 3.4-5.1 6.4-4.6 58.2 9.4 122.8 4.4 164.4-12.9 2.9-1.2 6.1.2 7.3 3 1.2 2.9-.2 6.1-3 7.3-29 12-68.6 18.4-109.5 18.4z" fill="#3f0f33" data-original="#3f0f33" class=""></path></g><g><path d="m151.6 327.8c-1.4 0-2.8-.5-3.9-1.6-2.2-2.2-2.3-5.7-.1-7.9 11.5-11.9 24.7-21.8 39.3-29.5.9-.5 2.9-1.7 5.2-3 4.5-2.7 7.5-4.5 9.1-5.2 2.8-1.3 6.1-.1 7.4 2.7s.1 6.1-2.7 7.4c-1.1.5-5.3 3-8 4.6-2.5 1.5-4.7 2.8-5.7 3.3-13.6 7.2-25.9 16.4-36.5 27.4-1.1 1.3-2.6 1.8-4.1 1.8z" fill="#3f0f33" data-original="#3f0f33" class=""></path></g><g><path d="m279.4 376.1c-1.7 0-3.3-.8-4.3-2.1-1.1-1.3-1.5-3.1-1.1-4.8.5-2.1 3.9-20.6-16-25.9l-.6-.2c-1.1-.3-2.3-.5-3.6-.7-2.2-.3-4-2-4.6-4.1-.6-2.2.2-4.5 2-5.8 15.5-11.9 28.8-15.8 40.7-11.8.3.1.6.2.9.4 9.7 5.3 16.5 13.5 19.7 23.7 2.8 9 .2 15.2-2.4 18.8-8.4 11.6-28.2 12.5-30.5 12.5-.1 0-.1 0-.2 0zm-11.8-41.2c14.2 6.6 18.1 19.4 18.1 29.3 5.5-1 12.4-3.1 15.3-7.1 1.6-2.3 1.9-5.2.7-9-2.3-7.3-6.9-13-13.9-16.9-5.7-1.8-12.4-.6-20.2 3.7z" fill="#3f0f33" data-original="#3f0f33" class=""></path></g><g><path d="m332.3 378.8c-9.5 0-20.4-3.6-31.1-14.1-2.2-2.2-2.2-5.7-.1-7.9 2.2-2.2 5.7-2.2 7.9-.1 16.1 15.8 30.5 11 37.5 7-3.9-5.4-11-14.9-18.8-25-9.3-12-28.7-3.3-28.9-3.2-2.8 1.3-6.1 0-7.4-2.8s-.1-6.1 2.7-7.4c1.1-.5 27.7-12.5 42.4 6.5 12.1 15.6 22.3 29.7 22.4 29.9 1.7 2.3 1.3 5.5-.8 7.4-5 4.6-14.5 9.7-25.8 9.7z" fill="#3f0f33" data-original="#3f0f33" class=""></path></g><g><path d="m268.9 430c-1.9 0-3.7-1-4.7-2.6-1.2-1.9-1.2-4.3.1-6.2.1-.1 7.4-11.4 1.9-20.4-9.8-15.9 8.7-33.7 9.5-34.5 2.2-2.1 5.8-2 7.9.2s2 5.8-.2 7.9c-.2.2-12.6 12.4-7.6 20.5 4.5 7.3 4.3 14.9 2.8 21 8.5-3 19.9-8.8 25.1-18.9 4.6-9 3.5-20.5-3.3-33.9-1.4-2.8-.3-6.1 2.5-7.5s6.1-.3 7.5 2.5c8.5 16.8 9.6 31.6 3.3 44.1-11.3 22.3-42.4 27.5-43.7 27.8-.5 0-.8 0-1.1 0z" fill="#3f0f33" data-original="#3f0f33" class=""></path></g><g><path d="m273.5 376.1c-32.3 0-56.4-8.6-71.9-25.6-22-24.2-17.8-56.2-17.6-57.6.4-3.1 3.3-5.2 6.3-4.8 3.1.4 5.2 3.3 4.8 6.3-.1.5-3.6 28.4 14.8 48.5 14.6 15.9 38.8 23.2 72.2 21.6 3.1-.1 5.7 2.2 5.9 5.3.1 3.1-2.2 5.7-5.3 5.9-3.2.3-6.2.4-9.2.4z" fill="#3f0f33" data-original="#3f0f33" class=""></path></g><g><path d="m332.2 340.8c-1.4 0-2.8-.5-3.9-1.5-2.2-2.1-2.3-5.7-.2-7.9 14.4-15.1 1.1-33.5.5-34.3-1.8-2.5-1.3-6 1.1-7.8 2.5-1.9 6-1.4 7.8 1.1 6.9 9.1 15.4 31.1-1.4 48.7-1 1.1-2.5 1.7-3.9 1.7z" fill="#3f0f33" data-original="#3f0f33" class=""></path></g><g><path d="m399.6 334.3c-.8 0-1.5 0-2.3-.1-12.2-1-23.3-9.7-26.4-20.7-2.9-10.2 1.3-20.4 11.4-27.8 5.4-3.9 8.4-8.1 8.9-12.5.6-5.5-2.9-9.8-3-9.9-1.6-1.8-1.8-4.5-.6-6.5 1.2-2.1 3.7-3.1 6-2.6.8.2 18.7 4.3 28.6 20.2 6.6 10.5 8 23.5 4.4 38.5-3 12.7-14.2 21.4-27 21.4zm2.9-64.2c.1 1.4.1 2.9-.1 4.4-.9 7.6-5.4 14.4-13.4 20.3-6.3 4.6-8.8 10-7.2 15.7 1.9 6.6 9 12 16.5 12.6 8.2.7 15.6-4.7 17.6-12.7 2.9-12 1.9-22-2.9-29.9-3-4.7-6.8-8-10.5-10.4z" fill="#3f0f33" data-original="#3f0f33" class=""></path></g><g><path d="m380.2 389.8c-.1 0-.2 0-.3 0-3.1-.1-5.5-2.8-5.3-5.8l2.8-62c.1-3.1 2.8-5.5 5.8-5.3 3.1.1 5.5 2.8 5.3 5.8l-2.8 62c-.1 3-2.6 5.3-5.5 5.3z" fill="#3f0f33" data-original="#3f0f33" class=""></path></g><g><path d="m390.2 483.9c-.2 0-.3 0-.5 0l-14.2-1.2c-3-.2-5.3-2.8-5.1-5.8l1.4-31.9c.1-3.1 2.7-5.4 5.8-5.4 3.1.1 5.5 2.8 5.4 5.8l-1.2 26.5 3.4.3 2.9-26.3c.3-3.1 3.1-5.3 6.2-5s5.3 3.1 5 6.2l-3.5 31.7c-.3 3-2.7 5.1-5.6 5.1z" fill="#3f0f33" data-original="#3f0f33" class=""></path></g><g><path d="m401.5 386.7c-.2 0-.5 0-.7 0-3.1-.4-5.2-3.2-4.8-6.3l7.2-54.3c.4-3.1 3.2-5.2 6.3-4.8s5.2 3.2 4.8 6.3l-7.2 54.3c-.4 2.8-2.8 4.8-5.6 4.8z" fill="#3f0f33" data-original="#3f0f33" class=""></path></g><g><path d="m394.4 452.2c-.8 0-1.6 0-2.5-.1-9.1-.8-17.9-5.7-24.3-13.5-6.5-8-9.7-18-8.9-28.1 1.7-20.5 20.2-37.2 39.5-35.6 9.2.8 17.4 5.6 23.2 13.6 5.6 7.8 8.2 17.6 7.4 27.7-1.6 20.4-16.8 36-34.4 36zm1.5-66.2c-11.5 0-24.7 10.4-25.9 25.4-.6 7.2 1.7 14.3 6.4 20.1 4.4 5.5 10.5 8.9 16.5 9.4 12.5 1 23.6-10.4 24.8-25.5.6-7.5-1.3-14.7-5.3-20.3-3.8-5.3-9.2-8.5-15-9-.5 0-1-.1-1.5-.1z" fill="#3f0f33" data-original="#3f0f33" class=""></path></g><g><path d="m360.6 439.2c-.5 0-.9 0-1.4-.1-13.6-1.1-22.9-17.7-21.3-37.6 1.7-20 13.6-34.8 27.2-33.6 7.6.6 14.2 6.2 18 15.2 1.2 2.8-.1 6.1-3 7.3-2.8 1.2-6.1-.1-7.3-3-2.2-5.1-5.3-8.1-8.7-8.4-6.1-.4-13.9 9-15.1 23.4s4.9 25 11 25.5c1.4.1 2.8-.2 4.2-1.1 2.7-1.5 6.1-.6 7.6 2.1s.6 6.1-2.1 7.6c-2.8 1.9-5.9 2.7-9.1 2.7z" fill="#3f0f33" data-original="#3f0f33" class=""></path></g><g><path d="m169.6 498.8c-30.3 0-63.4-20.6-83.4-55.1-12.9-22.3-18.5-47.2-15.7-70 2.8-23.4 14.1-41.8 31.6-52 17.6-10.1 39.2-10.6 60.8-1.4 21.1 9 39.8 26.3 52.7 48.6 13.3 23.1 4.6 41.8-3.1 58.3-2.5 5.4-5.2 11.1-7 16.7-1.5 4.6-.3 11.3.8 17.7 1.8 10.3 4.1 23.2-6.5 29.3-9.3 5.4-19.6 7.9-30.2 7.9zm-37.1-173.8c-8.9 0-17.3 2.2-24.8 6.5-14.4 8.3-23.7 23.8-26.1 43.6-2.5 20.4 2.6 42.8 14.3 63 23.8 41.3 67.9 60.6 98.3 43.1 3.6-2.1 2.8-8 1.1-17.6-1.4-7.8-2.8-15.9-.4-23.1 2.1-6.3 4.8-12.2 7.5-18 7.5-16.1 14-29.9 3.6-47.9-11.7-20.3-28.5-35.9-47.4-43.9-8.9-3.8-17.7-5.7-26.1-5.7z" fill="#3f0f33" data-original="#3f0f33" class=""></path></g><g><path d="m123.3 384.9c-13.3 0-24.2-10.9-24.2-24.2s10.9-24.2 24.2-24.2 24.2 10.9 24.2 24.2-10.9 24.2-24.2 24.2zm0-37.2c-7.2 0-13 5.8-13 13s5.8 13 13 13 13-5.8 13-13-5.8-13-13-13z" fill="#3f0f33" data-original="#3f0f33" class=""></path></g><g><path d="m177 416.8c-13.3 0-24.2-10.9-24.2-24.2s10.9-24.2 24.2-24.2 24.2 10.9 24.2 24.2-10.9 24.2-24.2 24.2zm0-37.2c-7.2 0-13 5.8-13 13s5.8 13 13 13 13-5.8 13-13-5.8-13-13-13z" fill="#3f0f33" data-original="#3f0f33" class=""></path></g><g><path d="m158.4 476.4c-13.3 0-24.2-10.9-24.2-24.2s10.9-24.2 24.2-24.2 24.2 10.9 24.2 24.2-10.9 24.2-24.2 24.2zm0-37.2c-7.2 0-13 5.8-13 13s5.8 13 13 13 13-5.8 13-13-5.8-13-13-13z" fill="#3f0f33" data-original="#3f0f33" class=""></path></g><g><g><path d="m362.9 138.3c-.5 0-1-.1-1.6-.2-3-.9-4.7-4-3.8-6.9 8.1-27.6 7.6-49.8-1.4-65.9-7.1-12.7-19.7-21.6-37.4-26.5-3-.8-4.7-3.9-3.9-6.9s3.9-4.7 6.9-3.9c20.8 5.7 35.7 16.4 44.2 31.8 10.5 18.8 11.3 43.9 2.4 74.5-.7 2.4-3 4-5.4 4z" fill="#3f0f33" data-original="#3f0f33" class=""></path></g><g><path d="m150.2 176.7c-5.7 0-11.4-.9-16.9-2.8-13.3-4.7-19.7-16.7-17.6-32.8 5.7-43 71.4-111.4 150.5-117.7 3.1-.2 5.8 2.1 6 5.1.2 3.1-2.1 5.8-5.1 6-79 6.3-135.8 73.5-140.3 108-1.4 10.8 2 17.8 10.3 20.7 24.8 8.8 56.1-10.5 78-28.4 18.1-14.7 30.8-29.2 30.9-29.4 2-2.3 5.6-2.6 7.9-.5 2.3 2 2.6 5.6.5 7.9-.5.6-13.5 15.4-32.3 30.7-19.6 16.2-46.5 33.2-71.9 33.2z" fill="#3f0f33" data-original="#3f0f33" class=""></path></g><g><path d="m362.9 167.7c-.6 0-1.1-.1-1.7-.3-.7-.2-70.9-21.5-163.8-6.8-3.1.5-5.9-1.6-6.4-4.7s1.6-5.9 4.7-6.4c79.2-12.5 141 0 161.6 5.2v-17.5c-18.5-3.6-90.6-15.9-128.6.6-2.8 1.2-6.1-.1-7.4-2.9-1.2-2.8.1-6.1 2.9-7.4 47-20.4 136.1-1.2 139.9-.3 2.6.6 4.4 2.8 4.4 5.5v29.4c0 1.8-.8 3.5-2.3 4.5-.9.7-2.1 1.1-3.3 1.1z" fill="#3f0f33" data-original="#3f0f33" class=""></path></g><g><path d="m294.8 49.2c-17.3 0-30.9-9.1-30.9-20.7s13.6-20.7 30.9-20.7 30.9 9.1 30.9 20.7-13.5 20.7-30.9 20.7zm0-30.3c-11.3 0-19.7 5-19.7 9.5s8.4 9.5 19.7 9.5 19.7-5 19.7-9.5-8.4-9.5-19.7-9.5z" fill="#3f0f33" data-original="#3f0f33" class=""></path></g></g><g><path d="m158.4 321.3c-.2 0-.3 0-.5 0-16.7-1.3-28.8-7-36.1-16.9-10.1-13.8-6.6-30.3-6.4-31 .4-1.8 1.7-3.3 3.5-4s3.7-.4 5.3.7c4.1 2.9 9.7 6 13.3 4 7.1-3.9 9.3-24.3 8.6-37.5-.2-3.1 2.2-5.7 5.3-5.9s5.7 2.2 5.9 5.3c.4 6.5 1.3 39.3-14.4 47.9-4.9 2.7-10.6 2.7-16.8.1.3 4.2 1.5 9.3 4.9 13.9 5.3 7.1 14.7 11.2 27.9 12.3 3.1.2 5.4 3 5.1 6-.2 2.9-2.7 5.1-5.6 5.1z" fill="#3f0f33" data-original="#3f0f33" class=""></path></g><g><path d="m389 285.7c-.3 0-.5 0-.8-.1-22-3-20.3-45-20-49.8.2-3.1 2.8-5.5 5.9-5.3s5.5 2.8 5.3 5.9c-.8 14.7 2 36.9 10.4 38.1 3.1.4 5.2 3.3 4.8 6.3-.4 2.9-2.8 4.9-5.6 4.9z" fill="#3f0f33" data-original="#3f0f33" class=""></path></g><g><path d="m279.7 189.5c-.3 0-.6 0-.8-.1-37.3-5.6-45.2-36.3-45.5-37.6-.7-3 1.1-6 4.1-6.8 3-.7 6 1.1 6.8 4.1.2 1 5.2 19.3 26.4 26.8-3.3-10.4-5.5-24.5 3.3-30.6 2.5-1.8 6-1.1 7.8 1.4s1.1 6-1.4 7.8c-3 2.1-.8 15.2 4.5 27 .8 1.9.6 4-.7 5.7-1.1 1.5-2.7 2.3-4.5 2.3z" fill="#3f0f33" data-original="#3f0f33" class=""></path></g></g></g></g></svg>