<svg xmlns="http://www.w3.org/2000/svg" version="1.1" xmlns:xlink="http://www.w3.org/1999/xlink" xmlns:svgjs="http://svgjs.com/svgjs" width="512" height="512" x="0" y="0" viewBox="0 0 510 510" style="enable-background:new 0 0 512 512" xml:space="preserve" class=""><g><linearGradient id="SVGID_1_" gradientUnits="userSpaceOnUse" x1="214.222" x2="417.662" y1="272.394" y2="475.834"><stop offset="0" stop-color="#d9b1ee"></stop><stop offset="1" stop-color="#814aa0"></stop></linearGradient><linearGradient id="lg1"><stop offset="0" stop-color="#5b3374" stop-opacity="0"></stop><stop offset="1" stop-color="#5b3374"></stop></linearGradient><linearGradient id="SVGID_00000129205961329717812300000013253933556256560523_" gradientUnits="userSpaceOnUse" x1="304.077" x2="183.077" xlink:href="#lg1" y1="355.899" y2="292.899"></linearGradient><linearGradient id="SVGID_00000152222408045128962930000018216861848284884379_" gradientUnits="userSpaceOnUse" x1="311.401" x2="311.401" xlink:href="#lg1" y1="430.542" y2="495.039"></linearGradient><linearGradient id="SVGID_00000002350670785313950800000012613207022550314894_" gradientUnits="userSpaceOnUse" x1="441.628" x2="341.07" xlink:href="#lg1" y1="349.244" y2="248.687"></linearGradient><linearGradient id="SVGID_00000084487555515900902040000005221260971256703881_" gradientUnits="userSpaceOnUse" x1="257.703" x2="321.703" y1="67.844" y2="171.177"><stop offset="0" stop-color="#26a6fe"></stop><stop offset="1" stop-color="#0182fc"></stop></linearGradient><linearGradient id="lg2"><stop offset="0" stop-color="#314dc9" stop-opacity="0"></stop><stop offset="1" stop-color="#2740b0"></stop></linearGradient><linearGradient id="SVGID_00000147198731637893722810000002331222085267143088_" gradientUnits="userSpaceOnUse" x1="309.056" x2="333.056" xlink:href="#lg2" y1="168.425" y2="221.758"></linearGradient><linearGradient id="SVGID_00000178896892495697576840000005836397073272825780_" gradientUnits="userSpaceOnUse" x1="334.355" x2="260.584" xlink:href="#lg2" y1="209.645" y2="135.875"></linearGradient><linearGradient id="SVGID_00000139270231542420035570000003488567282735182777_" gradientUnits="userSpaceOnUse" x1="300.715" x2="191.882" xlink:href="#lg2" y1="281.285" y2="172.452"></linearGradient><linearGradient id="SVGID_00000174564308428546741810000018258166776981185207_" gradientUnits="userSpaceOnUse" x1="301.716" x2="428.085" y1="147.743" y2="274.112"><stop offset="0" stop-color="#fd4755"></stop><stop offset="1" stop-color="#a72b2b"></stop></linearGradient><linearGradient id="lg3"><stop offset="0" stop-color="#b4eba8"></stop><stop offset="1" stop-color="#24ce20"></stop></linearGradient><linearGradient id="SVGID_00000096035700907653591770000010903582386346893479_" gradientUnits="userSpaceOnUse" x1="102.566" x2="167.22" xlink:href="#lg3" y1="366.05" y2="430.704"></linearGradient><linearGradient id="SVGID_00000111895081727831491130000014563102303348129948_" gradientUnits="userSpaceOnUse" x1="168.123" x2="135.457" y1="448.37" y2="346.37"><stop offset="0" stop-color="#007e49" stop-opacity="0"></stop><stop offset="1" stop-color="#007e49"></stop></linearGradient><linearGradient id="SVGID_00000107584401917691843970000006546792429139078567_" gradientUnits="userSpaceOnUse" x1="49.466" x2="207.709" y1="174.663" y2="332.907"><stop offset="0" stop-color="#fee45a"></stop><stop offset="1" stop-color="#fea613"></stop></linearGradient><linearGradient id="SVGID_00000148634442566187335360000015655586485993006764_" gradientUnits="userSpaceOnUse" x1="121.797" x2="121.797" y1="272.667" y2="405.83"><stop offset="0" stop-color="#fea613" stop-opacity="0"></stop><stop offset="1" stop-color="#e94444"></stop></linearGradient><linearGradient id="SVGID_00000005225706647820455630000015866630711192825477_" gradientUnits="userSpaceOnUse" x1="252.605" x2="290.687" xlink:href="#lg3" y1="127.896" y2="165.978"></linearGradient><linearGradient id="SVGID_00000080175020615702329560000001778907445237557677_" gradientUnits="userSpaceOnUse" x1="449.081" x2="489.606" y1="273.023" y2="313.549"><stop offset="0" stop-color="#fea95c"></stop><stop offset="1" stop-color="#f46700"></stop></linearGradient><g><path d="m365.717 212.281c-51.767-51.767-136.812-49.974-186.275 5.379-40.772 45.628-43.287 115.323-5.693 163.603 4.307 5.531 8.945 10.593 13.86 15.192 14.401 13.476 21.883 32.494 20.046 52.131-1.601 17.12 4.608 34.831 18.635 47.352 21.469 19.165 55.103 18.671 76.053-1.061 2.821-2.657 5.301-5.531 7.443-8.57 7.185-10.195 20.701-13.07 32.065-7.929 34.034 15.399 75.793 8.136 102.454-21.906 28.649-32.284 29.415-81.915 1.71-115.013-5.355-6.397-11.376-11.822-17.86-16.28-14.214-9.773-23.818-24.928-26.447-41.976-4.004-25.96-15.992-50.924-35.991-70.922z" fill="url(#SVGID_1_)" data-original="url(#SVGID_1_)"></path><path d="m365.717 212.281c-51.767-51.767-136.812-49.974-186.275 5.379-40.772 45.628-43.287 115.323-5.693 163.603 4.307 5.531 8.945 10.593 13.86 15.192 14.401 13.476 21.883 32.494 20.046 52.131-1.601 17.12 4.608 34.831 18.635 47.352 21.469 19.165 55.103 18.671 76.053-1.061 2.821-2.657 5.301-5.531 7.443-8.57 7.185-10.195 20.701-13.07 32.065-7.929 34.034 15.399 75.793 8.136 102.454-21.906 28.649-32.284 29.415-81.915 1.71-115.013-5.355-6.397-11.376-11.822-17.86-16.28-14.214-9.773-23.818-24.928-26.447-41.976-4.004-25.96-15.992-50.924-35.991-70.922z" fill="url(#SVGID_00000129205961329717812300000013253933556256560523_)" data-original="url(#SVGID_00000129205961329717812300000013253933556256560523_)"></path><path d="m173.749 381.263c4.307 5.531 8.946 10.593 13.86 15.192 14.401 13.476 21.883 32.494 20.046 52.131-1.601 17.12 4.608 34.831 18.635 47.352 21.469 19.165 55.103 18.671 76.053-1.061 2.821-2.657 5.301-5.531 7.443-8.57 7.185-10.195 20.701-13.07 32.065-7.929 34.034 15.399 75.793 8.136 102.454-21.906 25.917-29.204 29.011-72.603 8.857-105.118h-296.659c4.277 10.546 10.017 20.624 17.246 29.909z" fill="url(#SVGID_00000152222408045128962930000018216861848284884379_)" data-original="url(#SVGID_00000152222408045128962930000018216861848284884379_)"></path><path d="m428.154 325.18c-14.214-9.773-23.818-24.928-26.447-41.976-2.785-18.063-9.447-35.639-19.973-51.401l-57.548 57.548 137.363 137.363c9.671-28.491 4.577-61.227-15.535-85.254-5.355-6.398-11.376-11.822-17.86-16.28z" fill="url(#SVGID_00000002350670785313950800000012613207022550314894_)" data-original="url(#SVGID_00000002350670785313950800000012613207022550314894_)"></path><path d="m405.042 151.572c-4.791-9.627-4.958-20.775-.734-30.664 8.142-19.06 4.443-41.967-11.11-57.52-5.114-5.114-11.024-8.943-17.33-11.491-8.862-3.581-15.838-10.751-19.491-19.583-7.846-18.968-26.522-32.314-48.325-32.314-20.328 0-37.942 11.601-46.591 28.542-6.022 11.796-18.202 19.053-31.435 19.602-23.001.955-45.623 13.042-59.096 36.281-11.902 20.528-12.486 45.916-1.279 66.832 6.694 12.493 15.949 21.939 26.523 28.366 10.47 6.363 17.049 17.477 17.733 29.71.011.189.022.379.035.568 1.748 26.286 23.229 47.38 49.541 48.671 14.152.694 27.141-4.244 36.93-12.766 9.339-8.13 22.071-10.989 34.04-7.817 5.99 1.588 12.34 2.29 18.903 1.958 31.412-1.591 56.761-27.241 58.01-58.669.426-10.701-1.901-20.817-6.324-29.706z" fill="url(#SVGID_00000084487555515900902040000005221260971256703881_)" data-original="url(#SVGID_00000084487555515900902040000005221260971256703881_)"></path><path d="m169.651 151.257c6.694 12.493 15.949 21.939 26.523 28.366 10.47 6.363 17.049 17.477 17.733 29.71.011.189.022.379.035.568 1.748 26.286 23.229 47.38 49.541 48.671 14.152.694 27.141-4.244 36.93-12.766 9.339-8.13 22.071-10.989 34.04-7.817 5.99 1.588 12.34 2.29 18.903 1.958 31.412-1.591 56.761-27.241 58.01-58.669.425-10.7-1.901-20.816-6.325-29.706-4.791-9.627-4.958-20.775-.734-30.664 3.378-7.907 4.71-16.476 4.011-24.908h-242.731c-6.378 18.002-5.113 38.128 4.064 55.257z" fill="url(#SVGID_00000147198731637893722810000002331222085267143088_)" data-original="url(#SVGID_00000147198731637893722810000002331222085267143088_)"></path><path d="m292.098 121.806-45.583 45.583 70.214 70.214c5.763-1.269 11.835-1.175 17.724.386 5.99 1.588 12.34 2.29 18.903 1.958 15.311-.775 29.171-7.277 39.513-17.368z" fill="url(#SVGID_00000178896892495697576840000005836397073272825780_)" data-original="url(#SVGID_00000178896892495697576840000005836397073272825780_)"></path><path d="m204.235 151.265v35.006c5.716 6.258 9.188 14.372 9.673 23.061.011.189.022.379.035.568 1.748 26.286 23.229 47.38 49.541 48.671 13.729.673 26.354-3.965 36.034-12.022z" fill="url(#SVGID_00000139270231542420035570000003488567282735182777_)" data-original="url(#SVGID_00000139270231542420035570000003488567282735182777_)"></path><path d="m376.634 289.51c6.068-4.804 10.413-10.818 13.052-17.361 3.553-8.808 11.343-15.09 20.746-16.425 11.273-1.6 22.126-6.868 30.629-15.806 18.574-19.523 19.196-50.637 1.359-70.836-20.234-22.913-55.249-23.727-76.533-2.443-8.368 8.368-13.318 18.857-14.853 29.737-1.31 9.284-7.662 17.185-16.362 20.679-5.116 2.055-9.91 5.152-14.058 9.299-17.627 17.627-16.437 46.947 3.572 62.995 15.181 12.177 37.19 12.241 52.448.161z" fill="url(#SVGID_00000174564308428546741810000018258166776981185207_)" data-original="url(#SVGID_00000174564308428546741810000018258166776981185207_)"></path><path d="m216.726 436.056c-10.476-45.443-39.217-83.868-77.76-106.583-6.214-3.662-14.279-2.251-18.611 3.516-1.287 1.712-2.441 3.53-3.447 5.439-5.317 10.091-13.638 18.397-23.727 23.719-13.777 7.268-22.899 22.177-21.725 39.087 1.403 20.2 17.793 36.525 37.998 37.855 3.335.22 6.591.039 9.725-.499 10.979-1.884 21.998 2.045 29.369 10.396 9.589 10.864 24.072 17.305 40.003 15.867 6.125-.553 11.933-2.298 17.185-4.999 8.651-4.449 13.175-14.318 10.99-23.798z" fill="url(#SVGID_00000096035700907653591770000010903582386346893479_)" data-original="url(#SVGID_00000096035700907653591770000010903582386346893479_)"></path><path d="m216.726 436.056c-10.476-45.443-39.217-83.868-77.76-106.583-6.214-3.662-14.279-2.25-18.611 3.516-1.287 1.712-2.441 3.53-3.447 5.439-5.317 10.091-13.638 18.397-23.727 23.719-1.696.894-3.32 1.906-4.864 3.021l99.717 99.717c.173-.014.344-.015.517-.031 6.125-.553 11.933-2.298 17.185-4.999 8.651-4.45 13.175-14.319 10.99-23.799z" fill="url(#SVGID_00000111895081727831491130000014563102303348129948_)" data-original="url(#SVGID_00000111895081727831491130000014563102303348129948_)"></path><path d="m234.327 221.204c0-55.04-46.164-99.297-101.884-96.166-45.931 2.581-84.318 38.295-89.999 83.946-.651 5.23-.876 10.387-.708 15.444.492 14.819-5.641 28.908-17.056 38.37-9.952 8.25-16.067 20.966-15.266 35.079 1.225 21.601 19.368 39.219 40.994 39.866 2.912.087 5.758-.122 8.512-.599 9.24-1.6 17.953 4.057 21.261 12.831 9.907 26.279 35.967 44.617 66.111 42.819 32.392-1.932 59.184-27.909 62.051-60.232.554-6.247.237-12.332-.84-18.149-2.361-12.752.59-25.914 8.256-36.374 11.67-15.928 18.568-35.572 18.568-56.835z" fill="url(#SVGID_00000107584401917691843970000006546792429139078567_)" data-original="url(#SVGID_00000107584401917691843970000006546792429139078567_)"></path><path d="m234.252 224.896h-192.514c.348 14.647-5.764 28.54-17.059 37.903-9.952 8.25-16.067 20.966-15.266 35.079 1.225 21.602 19.368 39.219 40.994 39.866 2.912.087 5.758-.122 8.512-.599 9.24-1.6 17.953 4.057 21.261 12.831 9.907 26.279 35.966 44.617 66.11 42.819 32.392-1.932 59.184-27.909 62.051-60.232.554-6.247.237-12.332-.84-18.149-2.361-12.751.59-25.914 8.256-36.374 10.993-15.003 17.746-33.302 18.495-53.144z" fill="url(#SVGID_00000148634442566187335360000015655586485993006764_)" data-original="url(#SVGID_00000148634442566187335360000015655586485993006764_)"></path><circle cx="269.306" cy="144.597" fill="url(#SVGID_00000005225706647820455630000015866630711192825477_)" r="32.232" data-original="url(#SVGID_00000005225706647820455630000015866630711192825477_)"></circle><circle cx="466.345" cy="290.287" fill="url(#SVGID_00000080175020615702329560000001778907445237557677_)" r="34.313" data-original="url(#SVGID_00000080175020615702329560000001778907445237557677_)"></circle></g></g></svg>