<svg xmlns="http://www.w3.org/2000/svg" version="1.1" xmlns:xlink="http://www.w3.org/1999/xlink" xmlns:svgjs="http://svgjs.com/svgjs" width="512" height="512" x="0" y="0" viewBox="0 0 58 58" style="enable-background:new 0 0 512 512" xml:space="preserve" class=""><g><g id="Page-1" fill="none" fill-rule="evenodd"><g id="001---Paint-Splat" fill-rule="nonzero" transform="translate(-1)"><path id="Shape" d="m10.953 28.388c1.7402564-.0871987 3.484322.060803 5.185.44 1.124.292 2.541.871 2.728 2.169.0249942.1861648.0249942.3748352 0 .561-.008.068-.021.135-.035.2-.428 2.061-2.976 2.864-4.784 3.229-2.1077505.3225751-4.23903115.4660878-6.371.429-2.071.062-4.736.231-6 2.112-.4661906.7224926-.70192948 1.5695485-.676 2.429.00319396.6745181.2778469 1.3193398.762 1.789.34865793.2960301.77028509.4932038 1.221.571.4493375.0768386.90628812.0993336 1.361.067 1.35-.061 2.682-.309 4.02-.484 1.446-.189 2.9-.316 4.349-.47 1.105-.117 2.246-.234 3.364-.252 1.2-.019 2.871.12 3.524 1.3.3110136.6855142.3069955 1.4726965-.011 2.155-.5515083 1.2488469-1.3132284 2.3937947-2.252 3.385-.8516228.811156-1.5501157 1.769128-2.062 2.828-.5991944 1.5389576.1407609 3.2746991 1.666 3.908 1.3074256.2813316 2.6730332.040152 3.805-.672 1.1510523-.6901156 2.1777288-1.5690616 3.037-2.6 1.292-1.419 2.248-3.1 3.6-4.467 1.2512965-1.2641467 2.7521645-2.2538273 4.407-2.906 1.7977061-.8528171 3.8930897-.8038544 5.649.132.9140622.6046042 1.66078 1.4300868 2.171 2.4 1.687 2.862 2.784 7.039 6.755 7.331 1.6114822.0766166 3.1796718-.5348102 4.314-1.682 1.12-1.1 2.052-2.913 1.45-4.485-.592-1.546-2.322-2.333-3.763-2.9-1.8279997-.6012629-3.5630864-1.454838-5.155-2.536-1.0453205-.7770399-1.8223747-1.8606513-2.223-3.1-.1688565-.4976757-.1838411-1.0346825-.043-1.541.373-1.182 1.687-1.352 2.753-1.219s2.123.35 3.19.5c1.419.2 3.087.371 3.975-1.02.3825044-.624719.4798967-1.3830925.2676571-2.0841901-.2122396-.7010975-.7138911-1.2781256-1.3786571-1.5858099-.6447478-.2658165-1.3450128-.3688472-2.039-.3-.43.03-.858.1-1.288.092-.8752067.0754375-1.672674-.5042288-1.871-1.36-.0631293-.6927453.1230359-1.3852798.525-1.953 1.089-1.605 3.19-1.631 4.938-1.732 2.048-.118 4.026-.414 5.147-2.356.4501098-.8056552.658427-1.7239867.6-2.645-.137-1.852-1.685-2.8-3.433-2.838-1.6644327.0564295-3.3132042.3414315-4.9.847-1.531.393-3.42.95-5 .5-2.93-.838-.705-4.892.324-6.361 1.126-1.607 2.529-3.115 3.191-4.993.5307028-1.41882315.0292191-3.01681327-1.217-3.878-.6268991-.37023953-1.3790124-.46470612-2.078-.261-1.83.554-2.917 2.7-4.04 4.109-.861 1.082-3.048 3.775-4.707 2.858-.4581333-.3336141-.7434238-.8543243-.778-1.42-.123-.732-.154-1.485-.242-2.224-.0494019-.60413842-.2097478-1.19399444-.473-1.74-.2678204-.55433685-.7475614-.97748923-1.331-1.174-1-.288-1.685.426-2.122 1.228-.6973025 1.59685762-1.2618782 3.24844229-1.688 4.938-.411 1.184-1.018 2.8-2.187 3.449-1.518.837-2.567-1.034-3.078-2.165-.5154627-1.377776-1.1012317-2.7282156-1.755-4.046-.825-1.42-2.157-2.827-3.907-2.928-2.051-.118-3.634 1.6-4.143 3.438-.3498849 1.654087-.088405 3.378931.736 4.855 1.521 3.119 4.326 4.845 6.565 7.362 1.5 1.686-2.714 1.07-3.409.957-3.806-.623-8.426-2.586-11.2 1.212-.70167409.8333432-.89755834 1.9811025-.512 3 .31027823.5781651.81821057 1.0254012 1.431 1.26 1.562.66 3.331.382 4.972.341z" fill="#66c0f4" data-original="#f29c1f" class=""></path><path id="Shape" d="m23.579 41.676c-.3935772-1.3042005-1.2259173-2.4322404-2.356-3.193-.4130018-.2691116-.6830502-.7097209-.7354005-1.1998749-.0523503-.4901541.1185507-.9778584.4654005-1.3281251.9119052-.9317917 1.5367186-2.1060937 1.8-3.383.027-.114.061-.306.086-.5.0706728-.5465972.0676458-1.1002083-.009-1.646-.1286517-.8954566-.4619434-1.7492173-.974-2.495-.5053212-.7553705-.3387557-1.7731253.381-2.328 1.2229043-1.0085611 1.8015707-2.6017127 1.511-4.16-.092099-.5018889.0215485-1.019729.3153542-1.4369255.2938057-.4171966.7430726-.6986806 1.2466458-.7810745.5995534-.1120686 1.1770186-.3204288 1.71-.617 1.0679027-.6108102 1.9656077-1.4796347 2.611-2.527.5136854-.7660302 1.5316136-1.0055684 2.333-.549l.014.008c.8170114.4496975 1.734404.6856672 2.667.686.1913657-.0000419.3826079-.0097208.573-.029.4956655-.0369675.9823227.1470535 1.3295155.5027332.3471928.3556798.5194094.8466384.4704845 1.3412668-.085978.9164245.0244787 1.8406477.324 2.711.5528984 1.5947491 1.7891426 2.8592314 3.371 3.448.497274.2036204.8795401.6160416 1.0448902 1.1273165.1653502.5112749.0969776 1.069436-.1868902 1.5256835-.8244095 1.3282238-1.1698524 2.8984186-.979 4.45.008.0566667.017.1136667.027.171.1347865.7125846-.1973191 1.4322136-.827 1.792-1.2770482.6939692-2.2323267 1.8595382-2.662 3.248-.1394504.4424519-.2276937.8994381-.263 1.362-.0495295.9329045-.8331059 1.6566152-1.767 1.632-.131-.005-.263-.008-.395-.008-1.5010555.0171195-2.9855096.3163171-4.376.882-1.385135.5458366-2.6913099 1.2739181-3.884 2.165-.4698459.3667972-1.0888296.4819317-1.6591408.3086096-.5703112-.173322-1.02056-.6134047-1.2068592-1.1796096z" fill="#128fd7" data-original="#e57e25" class=""></path><g fill="#fac176"><path id="Shape" d="m37.244 53.925c.0411366-1.1822213-.2674078-2.3503071-.887-3.358-1.686-2.467-4.692-2.229-5.828.53-.8557236 1.7207956-.6846453 3.7745064.444 5.33.5733203.7355816 1.3792462 1.2548856 2.286 1.473 2.734.647 3.953-1.625 3.985-3.975z" fill="#c3e9ff" data-original="#fac176" class=""></path><circle id="Oval" cx="23.5" cy="3.264" r="2.5" fill="#c3e9ff" data-original="#fac176" class=""></circle><circle id="Oval" cx="4" cy="16" r="3" fill="#c3e9ff" data-original="#fac176" class=""></circle></g><path id="Shape" d="m24.336 20.314c-.7308061.0011681-1.4563735-.1233116-2.145-.368-.3365442-.1202199-.5833873-.4108518-.647546-.7624175-.0641586-.3515658.0641145-.7106542.3365-.9420001.2723856-.2313459.6475018-.2998023.984046-.1795824 1.2132662.4223177 2.5495962.3020917 3.668-.33 1.4260914-.8683529 2.5114151-2.1993303 3.075-3.771.2162195-.5083781.8036219-.7452195 1.312-.529s.7452195.8036219.529 1.312c-.7417001 1.981839-2.1343994 3.6530781-3.95 4.74-.9659111.5419416-2.0544443.827673-3.162.83z" fill="#eaf7ff" data-original="#ffffff" class=""></path><circle id="Oval" cx="56.5" cy="39.5" fill="#c3e9ff" r="2.5" data-original="#fac176" class=""></circle></g></g></g></svg>