<svg xmlns="http://www.w3.org/2000/svg" version="1.1" xmlns:xlink="http://www.w3.org/1999/xlink" xmlns:svgjs="http://svgjs.com/svgjs" width="512" height="512" x="0" y="0" viewBox="0 0 511.999 511.999" style="enable-background:new 0 0 512 512" xml:space="preserve" class=""><g>
<path style="" d="M203.623,455.222c-35.121,35.121-111.73,54.017-183.719,52.809
	C6.725,507.81-2.709,495.307,0.702,482.576c15.915-59.408,25.416-135.717,59.987-170.288c39.47-39.47,103.464-39.47,142.934,0
	C243.093,351.759,243.093,415.752,203.623,455.222z" fill="#ffd563" data-original="#fbe096" class=""></path>
<path style="opacity:0.1;enable-background:new    ;" d="M203.623,312.288c-0.379-0.379-0.775-0.729-1.158-1.101
	c23.974,38.948,19.112,90.622-14.641,124.375c-35.121,35.121-111.729,54.017-183.719,52.809c-1.414-0.024-2.781-0.197-4.097-0.488
	c0.011,10.688,8.565,19.958,19.896,20.148c71.99,1.208,148.599-17.689,183.719-52.809
	C243.093,415.752,243.093,351.759,203.623,312.288z" fill="#000000" data-original="#000000" class=""></path>
<g style="opacity:0.1;">
	<path d="M80.218,466.943c-3.86,0-7.14-2.961-7.466-6.877c-0.344-4.128,2.724-7.753,6.851-8.097
		c20.632-1.72,70.104-22.037,85.811-48.737c2.1-3.569,6.696-4.762,10.267-2.662c3.57,2.101,4.762,6.697,2.662,10.268
		c-19.194,32.628-74.472,54.161-97.494,56.079C80.637,466.936,80.426,466.943,80.218,466.943z" fill="#000000" data-original="#000000" class=""></path>
	<path d="M73.42,383.229c-0.832,0-1.678-0.14-2.507-0.434c-3.904-1.385-5.946-5.672-4.562-9.575
		c3.202-9.028,9.093-19.167,15.76-27.123c9.011-10.752,19.346-17.635,29.888-19.901c4.051-0.871,8.038,1.706,8.91,5.755
		c0.871,4.05-1.706,8.038-5.755,8.909c-9.158,1.97-16.771,9.175-21.546,14.872c-5.579,6.658-10.484,15.07-13.12,22.502
		C79.398,381.309,76.506,383.229,73.42,383.229z" fill="#000000" data-original="#000000" class=""></path>
</g>
<path style="" d="M498.107,110.071l-96.508,123.811c-35.606,45.679-79.083,84.634-128.383,115.031l0,0
	c-16.328,10.067-36.431,11.897-54.308,4.943l0,0c-26.081-10.145-46.708-30.771-56.852-56.852l0,0
	c-6.954-17.877-5.124-37.98,4.943-54.308l0,0c30.396-49.3,69.351-92.777,115.03-128.383L405.84,17.805
	c26.17-20.399,63.44-18.099,86.903,5.364l0,0C516.206,46.631,518.507,83.901,498.107,110.071z" fill="#ec6646" data-original="#ed718b" class=""></path>
<path style="" d="M203.539,191.258c-13.252,16.311-25.47,33.482-36.541,51.437l0,0
	c-10.067,16.328-11.897,36.431-4.943,54.308l0,0c10.145,26.082,30.771,46.707,56.853,56.853l0,0
	c17.877,6.954,37.98,5.124,54.308-4.943l0,0c17.955-11.07,35.126-23.289,51.437-36.541L203.539,191.258z" fill="#404b58" data-original="#404b58" class=""></path>
<path style="opacity:0.1;enable-background:new    ;" d="M401.599,233.882l96.508-123.811c20.4-26.17,18.099-63.44-5.364-86.903l0,0
	c-3.691-3.691-7.725-6.857-12.003-9.494c14.129,22.913,13.06,52.847-4.13,74.9l-96.508,123.811
	c-35.606,45.679-79.083,84.634-128.383,115.031l0,0c-16.328,10.067-36.431,11.897-54.307,4.943l0,0
	c-8.202-3.19-15.861-7.42-22.828-12.527c11.133,15.187,26.446,27.07,44.325,34.025l0,0c17.877,6.954,37.98,5.124,54.308-4.943l0,0
	C322.516,318.516,365.992,279.561,401.599,233.882z" fill="#000000" data-original="#000000" class=""></path>
<g>
</g>
<g>
</g>
<g>
</g>
<g>
</g>
<g>
</g>
<g>
</g>
<g>
</g>
<g>
</g>
<g>
</g>
<g>
</g>
<g>
</g>
<g>
</g>
<g>
</g>
<g>
</g>
<g>
</g>
</g></svg>