<svg xmlns="http://www.w3.org/2000/svg" version="1.1" xmlns:xlink="http://www.w3.org/1999/xlink" xmlns:svgjs="http://svgjs.com/svgjs" width="512" height="512" x="0" y="0" viewBox="0 0 512 512" style="enable-background:new 0 0 512 512" xml:space="preserve" class=""><g>
<path style="" d="M256,512L256,512C115.2,512,0,396.8,0,256l0,0C0,115.2,115.2,0,256,0l0,0c140.8,0,256,115.2,256,256
	l0,0C512,396.8,396.8,512,256,512z" fill="#ec6646" data-original="#ec6646" class=""></path>
<path style="" d="M309.832,129.752l-37.236-7.996l-73.904,8.676c0,0-9.176-8.28-4.08-33.192
	c-30.08,13.216-27.532,53.38-27.532,53.38s-49.828,55.92-54.04,79.308c-4.208,23.384-7.432,47.28-2.548,72.696
	c4.888,25.42,39.384,71.516,39.384,71.516l92.884,137.512c4.388,0.232,8.8,0.348,13.24,0.348l0,0c140.8,0,256-115.2,256-256l0,0
	c0-16.36-1.616-32.356-4.588-47.884L309.832,129.752z" fill="#bf4231" data-original="#bf4231"></path>
<g>
	<g>
		<path style="" d="M324.124,335.084c23.988-1.644,43.636-12.244,58.544-30.972
			c19.728-24.784,22.484-53.04,13.948-82.412c-14.056-48.36-46.2-79.296-92.952-94.356c-10.728-3.456-33.328-12.496-79.324-1.832
			c-8.388,1.796-12.068,3.128-19.824,6.276c0,0-43.244,23.272-55.876,36.632c-21.756,23.008-34.56,52.616-38.524,83.912
			c-6.628,52.296,19.216,105.512,62.032,135.276c22.608,15.712,50.388,25.712,78.084,25.94c14.984,0.124,27.972-5.436,32.476-20.964
			c2.528-8.712,0.62-16.148-3.948-23.724c-4.02-6.668-10.428-11.368-5.924-19.888" fill="#daceb6" data-original="#daceb6" class=""></path>
		<g>
			<path style="" d="M323.38,339.716c-1.64,0-3.024-1.272-3.14-2.932c-0.116-1.736,1.196-3.244,2.924-3.36
				c22.864-1.568,41.808-11.592,56.296-29.796c17.748-22.296,22.252-49.064,13.388-79.564c-13.396-46.1-43.976-77.132-90.892-92.24
				l-1.968-0.648c-11.588-3.832-33.152-10.984-75.688-1.12c-8.252,1.764-11.856,3.084-19.352,6.128
				c-1.596,0.668-3.444-0.116-4.1-1.732c-0.656-1.612,0.124-3.448,1.732-4.1c7.864-3.2,11.656-4.58,20.348-6.444
				c44.192-10.24,67.728-2.456,79.036,1.288l1.92,0.632c49.024,15.792,80.992,48.252,95.008,96.476
				c9.468,32.584,4.584,61.264-14.508,85.252c-15.64,19.644-36.092,30.464-60.792,32.156
				C323.528,339.712,323.452,339.716,323.38,339.716" fill="#474341" data-original="#474341" class=""></path>
			<path style="" d="M249.96,418.18h-0.496c-27.232-0.224-55.592-9.644-79.852-26.508
				c-45.156-31.388-70.028-85.656-63.36-138.256c4.176-32.928,17.784-62.548,39.344-85.668c1.184-1.272,3.18-1.336,4.452-0.156
				c1.272,1.188,1.34,3.18,0.156,4.452c-20.656,22.144-33.696,50.556-37.704,82.16c-6.276,49.524,18.12,102.696,60.704,132.296
				c23.236,16.152,50.336,25.164,76.316,25.376c15.812,0.336,25.788-6.16,29.428-18.696c2.06-7.104,0.94-13.648-3.624-21.22
				c-0.828-1.376-1.764-2.664-2.68-3.92c-3.64-5-7.768-10.668-3.328-19.064c0.82-1.532,2.72-2.128,4.256-1.316
				c1.544,0.812,2.128,2.72,1.316,4.256c-2.496,4.712-0.832,7.356,2.852,12.416c1.016,1.404,2.056,2.836,2.98,4.372
				c5.476,9.08,6.836,17.416,4.276,26.228C280.636,409.94,268.204,418.18,249.96,418.18" fill="#474341" data-original="#474341" class=""></path>
		</g>
		<path style="" d="M362.636,248.248c0,12.58-10.196,22.776-22.776,22.776s-22.776-10.196-22.776-22.776
			c0-12.58,10.196-22.776,22.776-22.776C352.44,225.472,362.636,235.668,362.636,248.248" fill="#e9495b" data-original="#e9495b"></path>
		<path style="" d="M339.86,273.228c-13.772,0-24.98-11.204-24.98-24.98c0-13.776,11.204-24.98,24.98-24.98
			c13.772,0,24.98,11.204,24.98,24.98C364.84,262.02,353.636,273.228,339.86,273.228 M339.86,227.68
			c-11.344,0-20.572,9.228-20.572,20.572s9.228,20.568,20.572,20.568s20.572-9.224,20.572-20.568S351.204,227.68,339.86,227.68" fill="#474341" data-original="#474341" class=""></path>
		<path style="" d="M308.756,178.26c0,12.58-10.196,22.776-22.776,22.776s-22.776-10.196-22.776-22.776
			s10.196-22.776,22.776-22.776S308.756,165.68,308.756,178.26" fill="#92be33" data-original="#92be33"></path>
		<path style="" d="M285.984,203.24c-13.772,0-24.98-11.204-24.98-24.98s11.204-24.98,24.98-24.98
			s24.98,11.204,24.98,24.98C310.96,192.036,299.756,203.24,285.984,203.24 M285.984,157.692c-11.344,0-20.572,9.228-20.572,20.572
			c0,11.344,9.228,20.568,20.572,20.568s20.572-9.224,20.572-20.568C306.552,166.92,297.324,157.692,285.984,157.692" fill="#474341" data-original="#474341" class=""></path>
		<path style="" d="M177.604,180.948c-5.684,4.14-9.38,10.848-9.38,18.42c0,12.58,10.196,22.776,22.776,22.776
			c6.712,0,12.744-2.904,16.912-7.524l-7.26-27.472L177.604,180.948z" fill="#ec6646" data-original="#ec6646" class=""></path>
		<path style="" d="M191,224.348c-13.772,0-24.98-11.204-24.98-24.98c0-7.964,3.844-15.512,10.284-20.204
			c0.972-0.712,2.356-0.504,3.08,0.484c0.716,0.984,0.5,2.36-0.484,3.08c-5.304,3.864-8.472,10.08-8.472,16.636
			c0,11.344,9.228,20.572,20.572,20.572c5.812,0,11.384-2.48,15.28-6.796c0.808-0.9,2.204-0.98,3.112-0.16
			c0.908,0.816,0.976,2.208,0.16,3.112C204.82,221.34,198.056,224.348,191,224.348" fill="#474341" data-original="#474341" class=""></path>
		<path style="" d="M183.78,279.908c0,12.58-10.196,22.776-22.776,22.776s-22.776-10.196-22.776-22.776
			s10.196-22.776,22.776-22.776S183.78,267.328,183.78,279.908" fill="#f7be15" data-original="#f7be15"></path>
		<path style="" d="M161.004,304.888c-13.772,0-24.98-11.204-24.98-24.98s11.204-24.98,24.98-24.98
			c13.772,0,24.98,11.204,24.98,24.98S174.776,304.888,161.004,304.888 M161.004,259.34c-11.344,0-20.572,9.228-20.572,20.572
			s9.228,20.568,20.572,20.568s20.572-9.224,20.572-20.568S172.348,259.34,161.004,259.34" fill="#474341" data-original="#474341" class=""></path>
		<path style="" d="M228.216,349.34c0,12.58-10.196,22.776-22.776,22.776s-22.776-10.196-22.776-22.776
			s10.196-22.776,22.776-22.776S228.216,336.76,228.216,349.34" fill="#0f95bc" data-original="#0f95bc" class=""></path>
		<g>
			<path style="" d="M205.44,374.32c-13.772,0-24.98-11.204-24.98-24.98s11.204-24.98,24.98-24.98
				s24.98,11.204,24.98,24.98S219.212,374.32,205.44,374.32 M205.44,328.772c-11.344,0-20.572,9.228-20.572,20.572
				s9.228,20.568,20.572,20.568s20.572-9.224,20.572-20.568C226.012,338,216.784,328.772,205.44,328.772" fill="#474341" data-original="#474341" class=""></path>
			<path style="" d="M374.144,283.164c-0.364,0-0.732-0.092-1.072-0.28c-1.06-0.592-1.444-1.936-0.856-2.996
				c2.776-4.992,4.872-10.26,6.232-15.668c0.3-1.176,1.476-1.88,2.676-1.6c1.18,0.3,1.896,1.496,1.6,2.676
				c-1.456,5.78-3.696,11.408-6.656,16.732C375.668,282.756,374.916,283.164,374.144,283.164" fill="#474341" data-original="#474341" class=""></path>
			<path style="" d="M382.168,257.748c-0.072,0-0.136-0.004-0.208-0.008c-1.216-0.116-2.104-1.188-1.992-2.4
				c2.28-24.408-6.668-49.356-25.196-70.248c-0.808-0.912-0.724-2.304,0.184-3.112c0.912-0.812,2.304-0.728,3.112,0.188
				c19.352,21.816,28.684,47.948,26.288,73.58C384.252,256.892,383.292,257.748,382.168,257.748" fill="#474341" data-original="#474341" class=""></path>
		</g>
		<path style="" d="M275.356,276.428c-12.376-23.104-24.048-42.484-35.368-59.304l-27.556,14.748
			c7.756,18.84,18.24,40.984,30.68,64.224c33.004,61.664,67.216,107.668,76.412,102.744c8.508-4.552-7.38-51.112-35.952-106.892" fill="#fdfbf8" data-original="#fdfbf8" class=""></path>
		<path style="" d="M318.2,402.296c-21.56,0.012-75.472-100.252-77.864-104.716
			c-12.06-22.528-22.72-44.832-30.816-64.504c-0.616-1.492,0-3.212,1.428-3.976l27.56-14.748c1.416-0.752,3.192-0.32,4.096,1.02
			c11.916,17.708,23.536,37.2,35.532,59.576c0.82,1.532,0.244,3.44-1.288,4.264c-1.532,0.824-3.44,0.244-4.264-1.288
			c-11.36-21.2-22.372-39.764-33.62-56.672l-22.532,12.056c7.876,18.828,18.028,39.96,29.456,61.304
			c37.488,70.048,66.504,102.78,72.192,101.44c3.432-3.224-4.052-37.724-37.312-102.664c-0.792-1.552-0.176-3.448,1.368-4.24
			c1.552-0.792,3.448-0.184,4.24,1.368c5.332,10.416,51.616,102.012,34.632,111.108C320.152,402.08,319.212,402.296,318.2,402.296" fill="#474341" data-original="#474341" class=""></path>
		<polygon style="" points="212.628,232.084 239.808,217.536 273.76,274.724 273.76,277.316 242.656,293.608 		" fill="#8b7a5c" data-original="#8b7a5c"></polygon>
		<polygon style="" points="200.812,189.896 211.264,184.304 239.808,217.536 212.628,232.084 		" fill="#fdfbf8" data-original="#fdfbf8" class=""></polygon>
		<g>
			<path style="" d="M212.632,235.232c-0.424,0-0.844-0.084-1.236-0.252c-0.876-0.38-1.536-1.128-1.8-2.048
				l-11.82-42.184c-0.4-1.424,0.248-2.928,1.544-3.628l10.452-5.596c1.304-0.696,2.916-0.396,3.876,0.724l28.548,33.236
				c0.62,0.724,0.88,1.692,0.7,2.628c-0.172,0.94-0.768,1.748-1.608,2.2l-27.18,14.544
				C213.656,235.108,213.144,235.232,212.632,235.232 M204.524,191.484l10.08,35.972l20.256-10.844l-24.344-28.34L204.524,191.484z" fill="#474341" data-original="#474341" class=""></path>
			<path style="" d="M242.784,296.272c-1.144,0-2.244-0.624-2.804-1.704c-0.8-1.548-0.192-3.448,1.352-4.244
				l32.096-16.548c1.556-0.8,3.444-0.184,4.244,1.356c0.8,1.548,0.192,3.444-1.352,4.244l-32.096,16.548
				C243.76,296.16,243.268,296.272,242.784,296.272" fill="#474341" data-original="#474341" class=""></path>
		</g>
		<path style="" d="M171.98,173.2c7.164,13.388,23.392,18.668,36.236,11.792c12.848-6.876,17.452-23.304,10.288-36.692
			c-2.716-5.08-6.744-8.984-11.388-11.508c-4.156-3.5-9.256-5.888-12.872-9.952c-7.16-8.052-5.656-22.192,3.032-28.56
			c-9.936-1.544-20.456,5.364-23.988,14.776C160.912,146.048,169.748,169.032,171.98,173.2" fill="#f7be15" data-original="#f7be15"></path>
		<g>
			<path style="" d="M196.2,191.144c-10.792,0-21.408-6.004-27-16.46v0.004c-0.132-0.248-13.008-25.04,1.144-62.74
				c4.184-11.144,16.196-18.548,27.416-16.78c1.256,0.196,2.276,1.128,2.576,2.368c0.3,1.236-0.176,2.536-1.2,3.284
				c-3.428,2.516-5.684,6.68-6.192,11.44c-0.504,4.756,0.824,9.308,3.648,12.488c1.928,2.16,4.424,3.848,7.072,5.636
				c1.74,1.176,3.536,2.388,5.232,3.792c5.236,2.908,9.512,7.268,12.384,12.628c7.972,14.904,2.776,33.276-11.58,40.96
				C205.416,190.06,200.792,191.144,196.2,191.144 M189.892,101.852c-5.948,1.636-11.396,6.296-13.656,12.312
				c-13.152,35.06-1.6,57.336-1.476,57.552v0.004c6.336,11.836,20.68,16.544,31.972,10.496c11.292-6.044,15.332-20.596,8.992-32.432
				c-2.34-4.364-5.836-7.9-10.112-10.22c-0.188-0.104-0.364-0.224-0.524-0.36c-1.516-1.272-3.184-2.4-4.952-3.596
				c-2.848-1.928-5.792-3.916-8.244-6.676c-4-4.5-5.9-10.824-5.208-17.34C187.06,108.048,188.176,104.72,189.892,101.852" fill="#474341" data-original="#474341" class=""></path>
			<path style="" d="M239.428,260.864c-3.032-6.468-6.208-12.788-9.792-18.972c-1.432-2.476-5.272-0.24-3.836,2.24
				c3.58,6.184,6.76,12.508,9.792,18.972C236.804,265.696,240.636,263.44,239.428,260.864" fill="#474341" data-original="#474341" class=""></path>
			<path style="" d="M248.064,276.968c-1.384-2.2-2.656-4.452-3.816-6.776c-1.284-2.556-5.116-0.308-3.836,2.244
				c1.164,2.32,2.436,4.576,3.816,6.772C245.748,281.624,249.592,279.396,248.064,276.968" fill="#474341" data-original="#474341" class=""></path>
			<path style="" d="M191.192,154.34c-9.092-14.412-18.268-29.924-13.08-47.516c0.812-2.748-3.476-3.924-4.284-1.184
				c-5.536,18.768,3.756,35.448,13.528,50.94C188.876,158.996,192.724,156.768,191.192,154.34" fill="#474341" data-original="#474341" class=""></path>
			<path style="" d="M179.96,163.768c-5.216-10.032-10.096-20.1-9.04-31.696c0.26-2.844-4.184-2.828-4.444,0
				c-1.124,12.324,4.104,23.276,9.644,33.936C177.444,168.548,181.28,166.304,179.96,163.768" fill="#474341" data-original="#474341" class=""></path>
			<path style="" d="M128.392,239.132c-0.2,0-0.404-0.024-0.608-0.088c-1.168-0.332-1.848-1.552-1.512-2.724
				c6.316-22.012,17.844-42.428,33.348-59.04c0.828-0.888,2.228-0.936,3.116-0.104c0.888,0.828,0.936,2.22,0.104,3.116
				c-15.024,16.104-26.204,35.9-32.328,57.244C130.236,238.504,129.352,239.132,128.392,239.132" fill="#474341" data-original="#474341" class=""></path>
			<path style="" d="M122.812,278.632h-0.004c-1.22-0.004-2.2-0.988-2.2-2.208c0.016-9.328,0.928-18.688,2.704-27.812
				c0.24-1.204,1.404-1.952,2.588-1.744c1.192,0.236,1.972,1.392,1.744,2.588c-1.724,8.848-2.608,17.924-2.624,26.98
				C125.012,277.648,124.028,278.632,122.812,278.632" fill="#474341" data-original="#474341" class=""></path>
			<path style="" d="M209.136,396.352c-0.272,0-0.548-0.052-0.816-0.156c-7.064-2.812-13.912-6.324-20.352-10.44
				c-1.024-0.656-1.324-2.02-0.668-3.044c0.66-1.024,2.024-1.32,3.048-0.668c6.2,3.964,12.796,7.352,19.604,10.06
				c1.128,0.452,1.684,1.732,1.232,2.864C210.84,395.824,210.012,396.352,209.136,396.352" fill="#474341" data-original="#474341" class=""></path>
			<path style="" d="M245.648,404.484c-8.008,0-17.564-1.736-28.648-5.212c-1.164-0.364-1.808-1.6-1.444-2.764
				c0.36-1.156,1.584-1.812,2.764-1.444c28.628,8.984,45.904,5.832,51.36-9.368c0.404-1.148,1.684-1.74,2.816-1.332
				c1.148,0.412,1.744,1.672,1.332,2.816C269.692,398.708,260.248,404.484,245.648,404.484" fill="#474341" data-original="#474341" class=""></path>
			<path style="" d="M212.636,235.232c-1.124,0-2.216-0.604-2.784-1.664c-0.82-1.532-0.244-3.44,1.296-4.264
				l27.176-14.548c1.54-0.812,3.44-0.244,4.264,1.296c0.82,1.532,0.244,3.44-1.296,4.26l-27.176,14.548
				C213.644,235.112,213.136,235.232,212.636,235.232" fill="#474341" data-original="#474341" class=""></path>
		</g>
	</g>
</g>
<g>
</g>
<g>
</g>
<g>
</g>
<g>
</g>
<g>
</g>
<g>
</g>
<g>
</g>
<g>
</g>
<g>
</g>
<g>
</g>
<g>
</g>
<g>
</g>
<g>
</g>
<g>
</g>
<g>
</g>
</g></svg>