<svg xmlns="http://www.w3.org/2000/svg" version="1.1" xmlns:xlink="http://www.w3.org/1999/xlink" xmlns:svgjs="http://svgjs.com/svgjs" width="512" height="512" x="0" y="0" viewBox="0 0 280 280" style="enable-background:new 0 0 512 512" xml:space="preserve" class=""><g>
<g>
	<path style="" d="M183.679,4.634l91.683,91.683c6.178,6.178,6.178,16.207,0,22.385L118.695,275.359
		c-6.178,6.187-16.207,6.187-22.385,0L4.637,183.676c-6.178-6.178-6.178-16.198,0-22.376L161.295,4.634
		C167.482-1.545,177.501-1.545,183.679,4.634z" fill="#26a6d1" data-original="#26a6d1" class=""></path>
	<path style="" d="M84.34,81.597L4.637,161.3c-6.178,6.178-6.178,16.198,0,22.376l91.683,91.683
		c6.178,6.187,16.207,6.187,22.385,0l79.703-79.694L84.34,81.597z" fill="#ec6646" data-original="#e2574c" class=""></path>
	<path style="" d="M40.585,125.352L4.637,161.3c-6.178,6.178-6.178,16.198,0,22.376l91.683,91.683
		c6.178,6.187,16.207,6.187,22.385,0l35.949-35.94L40.585,125.352z" fill="#cd563a" data-original="#cb4e44" class=""></path>
	<path style="" d="M20.416,145.548l114.041,114.041l-10.555,10.555L9.861,156.103L20.416,145.548z" fill="#eae5e4" data-original="#eae5e4"></path>
</g>
<g>
</g>
<g>
</g>
<g>
</g>
<g>
</g>
<g>
</g>
<g>
</g>
<g>
</g>
<g>
</g>
<g>
</g>
<g>
</g>
<g>
</g>
<g>
</g>
<g>
</g>
<g>
</g>
<g>
</g>
</g></svg>