<svg xmlns="http://www.w3.org/2000/svg" version="1.1" xmlns:xlink="http://www.w3.org/1999/xlink" xmlns:svgjs="http://svgjs.com/svgjs" width="512" height="512" x="0" y="0" viewBox="0 0 512 512" style="enable-background:new 0 0 512 512" xml:space="preserve" class=""><g>
<g>
	<g>
		<path d="M458.667,0c-29.419,0-53.333,23.936-53.333,53.333c0,10.859,3.285,20.928,8.875,29.376l-331.52,331.52
			c-8.427-5.611-18.496-8.896-29.355-8.896C23.915,405.333,0,429.269,0,458.667S23.915,512,53.333,512
			c29.419,0,53.333-23.936,53.333-53.333c0-10.859-3.285-20.928-8.875-29.376l331.52-331.52c8.427,5.611,18.496,8.896,29.355,8.896
			c29.419,0,53.333-23.936,53.333-53.333S488.085,0,458.667,0z M53.333,490.667c-17.643,0-32-14.357-32-32s14.357-32,32-32
			c8.704,0,16.576,3.499,22.336,9.152c0.085,0.085,0.107,0.213,0.213,0.299c0.107,0.085,0.213,0.107,0.299,0.213
			c5.653,5.76,9.152,13.632,9.152,22.336C85.333,476.309,70.976,490.667,53.333,490.667z M458.667,85.333
			c-8.704,0-16.576-3.499-22.336-9.152c-0.085-0.085-0.107-0.213-0.213-0.299s-0.213-0.107-0.299-0.213
			c-5.653-5.76-9.152-13.632-9.152-22.336c0-17.643,14.357-32,32-32s32,14.357,32,32C490.667,70.976,476.309,85.333,458.667,85.333z
			" fill="#ec6646" data-original="#000000" class=""></path>
	</g>
</g>
<g>
</g>
<g>
</g>
<g>
</g>
<g>
</g>
<g>
</g>
<g>
</g>
<g>
</g>
<g>
</g>
<g>
</g>
<g>
</g>
<g>
</g>
<g>
</g>
<g>
</g>
<g>
</g>
<g>
</g>
</g></svg>