<svg xmlns="http://www.w3.org/2000/svg" version="1.1" xmlns:xlink="http://www.w3.org/1999/xlink" xmlns:svgjs="http://svgjs.com/svgjs" width="512" height="512" x="0" y="0" viewBox="0 0 480 480" style="enable-background:new 0 0 512 512" xml:space="preserve" class=""><g>
<g>
	<g>
		<g>
			<path d="M472,72H8c-4.418,0-8,3.582-8,8v320c0,4.418,3.582,8,8,8h464c4.418,0,8-3.582,8-8V80C480,75.582,476.418,72,472,72z
				 M464,392H16V88h448V392z" fill="#ec6646" data-original="#000000" class=""></path>
			<path d="M80,152h64v-48H32v112h48V152z M64,200H48v-80h80v16H64V200z" fill="#ec6646" data-original="#000000" class=""></path>
			<path d="M448,264h-48v64h-64v48h112V264z M432,360h-80v-16h64v-64h16V360z" fill="#ec6646" data-original="#000000" class=""></path>
		</g>
	</g>
</g>
<g>
</g>
<g>
</g>
<g>
</g>
<g>
</g>
<g>
</g>
<g>
</g>
<g>
</g>
<g>
</g>
<g>
</g>
<g>
</g>
<g>
</g>
<g>
</g>
<g>
</g>
<g>
</g>
<g>
</g>
</g></svg>