<svg xmlns="http://www.w3.org/2000/svg" version="1.1" xmlns:xlink="http://www.w3.org/1999/xlink" xmlns:svgjs="http://svgjs.com/svgjs" width="512" height="512" x="0" y="0" viewBox="0 0 64 64" style="enable-background:new 0 0 512 512" xml:space="preserve" class=""><g><path d="m14 56h36c3.309 0 6-2.691 6-6v-36c0-3.309-2.691-6-6-6h-36c-3.309 0-6 2.691-6 6v36c0 3.309 2.691 6 6 6zm38-42v36c0 1.103-.897 2-2 2h-8v-40h8c1.103 0 2 .897 2 2zm-40 0c0-1.103.897-2 2-2h24v40h-24c-1.103 0-2-.897-2-2z" fill="#ffffff" data-original="#000000" class=""></path></g></svg>