<svg xmlns="http://www.w3.org/2000/svg" version="1.1" xmlns:xlink="http://www.w3.org/1999/xlink" xmlns:svgjs="http://svgjs.com/svgjs" width="512" height="512" x="0" y="0" viewBox="0 0 24 24" style="enable-background:new 0 0 512 512" xml:space="preserve" class="hovered-paths"><g><path id="layout-web-8" d="m18 3.25h-12a3.383 3.383 0 0 0 -3.75 3.75v10a3.383 3.383 0 0 0 3.75 3.75h12a3.383 3.383 0 0 0 3.75-3.75v-10a3.383 3.383 0 0 0 -3.75-3.75zm-12 1.5h12c1.577 0 2.25.673 2.25 2.25v6.25h-16.5v-6.25c0-1.577.673-2.25 2.25-2.25zm12 14.5h-12c-1.577 0-2.25-.673-2.25-2.25v-2.25h16.5v2.25c0 1.577-.673 2.25-2.25 2.25z" fill="#ffffff" data-original="#000000" class="hovered-path"></path></g></svg>